<svg width="32" height="32" viewBox="0 0 32 32" fill="none" xmlns="http://www.w3.org/2000/svg">
<g clip-path="url(#clip0_1765_1894)">
<circle cx="16" cy="16" r="15.35" fill="white" stroke="#1476F2" stroke-width="1.3"/>
<path d="M24.906 25L24.986 24.1016C25.0952 22.8996 24.2947 21.8035 23.1165 21.5417L20.3398 20.893V16.3004C20.3315 15.8958 20.1621 15.5113 19.8693 15.232C19.5765 14.9527 19.1844 14.8017 18.7799 14.8125C18.3847 14.7961 18.0013 14.9493 17.7263 15.2335C17.4512 15.5178 17.3107 15.906 17.34 16.3004V23.66L16.1576 22.7777C15.6695 22.4131 14.9878 22.4622 14.5569 22.8929C14.126 23.3236 14.0766 24.0053 14.4409 24.4936L14.8209 25" stroke="#1476F2" stroke-width="1.3" stroke-linecap="round" stroke-linejoin="round"/>
<path d="M15.4831 10.772H12.836C12.531 10.7476 12.2305 10.8582 12.0142 11.0747C11.7979 11.2912 11.6874 11.5917 11.7121 11.8968C11.7121 13.1287 15.4831 14.0719 15.4831 15.3046C15.4874 15.6029 15.3709 15.8903 15.1599 16.1013C14.9489 16.3123 14.6615 16.4289 14.3631 16.4245H11.7121" stroke="#1476F2" stroke-width="1.3" stroke-linecap="round" stroke-linejoin="round"/>
<path d="M13.5983 10.7719V9.35754" stroke="#1476F2" stroke-width="1.3" stroke-linecap="round" stroke-linejoin="round"/>
<path d="M13.5983 17.8428V16.4285" stroke="#1476F2" stroke-width="1.3" stroke-linecap="round" stroke-linejoin="round"/>
<path d="M17.4341 20.1012C16.4195 20.6735 15.2479 21 14 21C10.134 21 7 17.866 7 14C7 10.134 10.134 7 14 7C17.866 7 21 10.134 21 14C21 14.695 20.8987 15.3663 20.7101 16C20.6312 16.2653 20.5369 16.5239 20.4284 16.775" stroke="#1476F2" stroke-width="1.3"/>
</g>
<defs>
<clipPath id="clip0_1765_1894">
<rect width="32" height="32" fill="white"/>
</clipPath>
</defs>
</svg>
