<svg width="32" height="32" viewBox="0 0 32 32" fill="none" xmlns="http://www.w3.org/2000/svg">
<path fill-rule="evenodd" clip-rule="evenodd" d="M10.6357 15.3333H9.969V21.9999C9.969 22.1839 10.1183 22.3333 10.3023 22.3333H11.6357V21.6666H10.6357V15.3333ZM21.3023 21.6666H17.3023V22.3333H21.6357C21.8197 22.3333 21.969 22.1839 21.969 21.9999V15.3333H21.3023V21.6666Z" fill="#1476F2" stroke="#1476F2" stroke-width="0.3"/>
<path fill-rule="evenodd" clip-rule="evenodd" d="M16.2047 8.09775C16.0744 7.96742 15.8637 7.96742 15.7334 8.09775L8.40003 15.4311L8.87137 15.9024L15.969 8.80475L23.0667 15.9024L23.538 15.4311L16.2047 8.09775ZM11.6357 9.00008H12.6357V10.0001H13.3023V8.66675C13.3023 8.48275 13.153 8.33342 12.969 8.33342H11.3023C11.1183 8.33342 10.969 8.48275 10.969 8.66675V11.6667H11.6357V9.00008Z" fill="#1476F2" stroke="#1476F2" stroke-width="0.3"/>
<path fill-rule="evenodd" clip-rule="evenodd" d="M15.3023 15.3333C15.3023 14.9657 15.6013 14.6667 15.969 14.6667C16.3367 14.6667 16.6357 14.9657 16.6357 15.3333C16.6357 15.701 16.3367 16 15.969 16C15.6013 16 15.3023 15.701 15.3023 15.3333ZM16.3023 17.6667V16.6193C16.8757 16.4703 17.3023 15.9527 17.3023 15.3333C17.3023 14.598 16.7043 14 15.969 14C15.2337 14 14.6357 14.598 14.6357 15.3333C14.6357 15.9527 15.0623 16.4703 15.6357 16.6193V17.5287L14.0667 19.0977C14.004 19.16 13.969 19.245 13.969 19.3333V21.3333V24H14.6357V21.3333V19.4713L16.2047 17.9023C16.2673 17.84 16.3023 17.755 16.3023 17.6667ZM12.6357 16C12.268 16 11.969 15.701 11.969 15.3333C11.969 14.9657 12.268 14.6667 12.6357 14.6667C13.0033 14.6667 13.3023 14.9657 13.3023 15.3333C13.3023 15.701 13.0033 16 12.6357 16ZM12.6357 14C11.9003 14 11.3023 14.598 11.3023 15.3333C11.3023 15.9527 11.729 16.4703 12.3023 16.6193V21.3333H12.969V16.6193C13.5423 16.4703 13.969 15.9527 13.969 15.3333C13.969 14.598 13.371 14 12.6357 14ZM19.3023 18C19.67 18 19.969 18.299 19.969 18.6667C19.969 19.0343 19.67 19.3333 19.3023 19.3333C18.9347 19.3333 18.6357 19.0343 18.6357 18.6667C18.6357 18.299 18.9347 18 19.3023 18ZM19.3023 20C20.0377 20 20.6357 19.402 20.6357 18.6667C20.6357 17.9313 20.0377 17.3333 19.3023 17.3333C18.567 17.3333 17.969 17.9313 17.969 18.6667C17.969 18.824 18.0013 18.9727 18.0513 19.113L15.7333 21.431C15.6707 21.4933 15.6357 21.5783 15.6357 21.6667V22.6667H16.3023V21.8047L18.4357 19.6713C18.6693 19.8733 18.97 20 19.3023 20ZM19.3023 14.6667C19.67 14.6667 19.969 14.9657 19.969 15.3333C19.969 15.701 19.67 16 19.3023 16C18.9347 16 18.6357 15.701 18.6357 15.3333C18.6357 14.9657 18.9347 14.6667 19.3023 14.6667ZM19.3023 16.6667C20.0377 16.6667 20.6357 16.0687 20.6357 15.3333C20.6357 14.598 20.0377 14 19.3023 14C18.567 14 17.969 14.598 17.969 15.3333C17.969 16.0687 18.567 16.6667 19.3023 16.6667Z" fill="#1476F2" stroke="#1476F2" stroke-width="0.3"/>
<path fill-rule="evenodd" clip-rule="evenodd" d="M12.3024 24.0001H12.9688V23.3333H12.3024V24.0001Z" fill="#1476F2" stroke="#1476F2" stroke-width="0.3"/>
<path fill-rule="evenodd" clip-rule="evenodd" d="M12.3024 22.6668H12.9688V22H12.3024V22.6668Z" fill="#1476F2" stroke="#1476F2" stroke-width="0.3"/>
<path fill-rule="evenodd" clip-rule="evenodd" d="M15.6356 24.0001H16.3024V23.3333H15.6356V24.0001Z" fill="#1476F2" stroke="#1476F2" stroke-width="0.3"/>
<rect x="0.65" y="0.65" width="30.7" height="30.7" rx="15.35" stroke="#1476F2" stroke-width="1.3"/>
</svg>
