<svg width="32" height="32" viewBox="0 0 32 32" fill="none" xmlns="http://www.w3.org/2000/svg">
<g clip-path="url(#clip0_1765_1916)">
<circle cx="16" cy="16" r="15.35" fill="white" stroke="#1476F2" stroke-width="1.3"/>
<path fill-rule="evenodd" clip-rule="evenodd" d="M15.9998 26L8.32904 17.3635C6.94755 15.8721 6.60553 13.5937 7.48006 11.7078V11.7078C8.13233 10.2994 9.37208 9.31541 10.8119 9.06327C12.2517 8.81112 13.7161 9.32157 14.7474 10.4351L15.9998 11.7871L17.2523 10.4351C18.2839 9.32159 19.7484 8.81117 21.1884 9.0633C22.6285 9.31542 23.8685 10.2994 24.5211 11.7078V11.7078C25.3943 13.5942 25.0517 15.872 23.6706 17.3635L15.9998 26Z" stroke="#1476F2" stroke-width="1.3" stroke-linecap="round" stroke-linejoin="round"/>
<path d="M4 19.5882H11.1712C11.6519 19.5882 12.0646 19.2462 12.1538 18.7738L12.8471 15.1036C13.0579 13.9875 14.6708 14.0312 14.8209 15.1571L15.3329 18.9968C15.4665 19.999 16.8923 20.0634 17.1158 19.0774L17.1533 18.912C17.3577 18.0103 18.6423 18.0103 18.8467 18.912V18.912C18.9364 19.3075 19.2879 19.5882 19.6934 19.5882H28" stroke="#1476F2" stroke-width="1.3"/>
</g>
<defs>
<clipPath id="clip0_1765_1916">
<rect width="32" height="32" fill="white"/>
</clipPath>
</defs>
</svg>
