<svg width="32" height="32" viewBox="0 0 32 32" fill="none" xmlns="http://www.w3.org/2000/svg">
<path fill-rule="evenodd" clip-rule="evenodd" d="M15.3333 23.9442C15.1547 23.9442 14.9763 23.9162 14.8063 23.8595L9.13933 21.9705C8.458 21.7432 8 21.1078 8 20.3892V19.9778C8 19.2595 8.458 18.6242 9.13933 18.3968L13.228 17.0342L13.4387 17.6665L9.35033 19.0292C8.94133 19.1655 8.66667 19.5468 8.66667 19.9778V20.3892C8.66667 20.8202 8.94133 21.2015 9.35033 21.3378L15.017 23.2268C15.2207 23.2948 15.4453 23.2948 15.6497 23.2268L22.316 21.0045C22.7253 20.8682 23 20.4872 23 20.0558V19.6445C23 19.2135 22.7253 18.8322 22.316 18.6958L18.2293 17.3335L18.44 16.7012L22.527 18.0635C23.2087 18.2908 23.6667 18.9262 23.6667 19.6445V20.0558C23.6667 20.7745 23.2087 21.4098 22.527 21.6372L15.8607 23.8595C15.6903 23.9162 15.512 23.9442 15.3333 23.9442ZM15.3333 21.6836C15.2977 21.6836 15.2623 21.6779 15.228 21.6666L10.228 19.9999C10.0917 19.9546 10 19.8273 10 19.6836C10 19.5399 10.0917 19.4129 10.228 19.3673L14.228 18.0339L14.4387 18.6666L11.3873 19.6836L15.3333 20.9989L20.2793 19.3503L17.2277 18.3333L17.4383 17.7006L21.4387 19.0339C21.575 19.0796 21.6667 19.2066 21.6667 19.3503C21.6667 19.4939 21.575 19.6213 21.4387 19.6666L15.4387 21.6666C15.4043 21.6779 15.369 21.6836 15.3333 21.6836Z" fill="#1476F2" stroke="#1476F2" stroke-width="0.3"/>
<path fill-rule="evenodd" clip-rule="evenodd" d="M15.6667 8.66667C13.842 8.66667 12.3573 10.1513 12.3573 11.976C12.3563 12.851 12.5007 13.3777 12.9293 14.0637C13.3177 14.6847 14.999 17.1393 15.6667 18.112C16.3343 17.1393 18.016 14.6847 18.404 14.0637C18.833 13.3777 18.9773 12.851 18.976 11.9763C18.976 10.1513 17.4917 8.66667 15.6667 8.66667ZM15.6667 19.2883L15.392 18.8893C15.2887 18.7393 12.8567 15.205 12.364 14.417C11.7993 13.5137 11.6897 12.8377 11.6907 11.9753C11.6907 9.78367 13.4743 8 15.6667 8C17.859 8 19.6427 9.78367 19.6427 11.976C19.644 12.8377 19.5343 13.514 18.969 14.417C18.477 15.205 16.0447 18.7393 15.9413 18.8893L15.6667 19.2883ZM15.6688 11.0169C16.2371 11.0169 16.6661 11.4463 16.6668 12.0156C16.6671 12.2929 16.5664 12.5469 16.3828 12.7306C16.1984 12.9153 15.9464 13.0169 15.6728 13.0169H15.6608C15.3871 13.0169 15.1348 12.9153 14.9504 12.7306C14.7671 12.5469 14.6661 12.2929 14.6668 12.0156C14.6674 11.4463 15.0964 11.0169 15.6688 11.0169ZM15.6728 13.6836C16.1248 13.6836 16.5441 13.5123 16.8548 13.2016C17.1641 12.8916 17.3341 12.4699 17.3334 12.0146C17.3321 11.0813 16.6008 10.3503 15.6644 10.3503C14.7324 10.3503 14.0014 11.0813 14.0001 12.0146C13.9994 12.4703 14.1694 12.8919 14.4788 13.2016C14.7891 13.5126 15.2088 13.6836 15.6668 13.6836H15.6728Z" fill="#1476F2" stroke="#1476F2" stroke-width="0.3"/>
<rect x="0.65" y="0.65" width="30.7" height="30.7" rx="15.35" stroke="#1476F2" stroke-width="1.3"/>
</svg>
