<svg width="32" height="32" viewBox="0 0 32 32" fill="none" xmlns="http://www.w3.org/2000/svg">
<g clip-path="url(#clip0_1765_2007)">
<circle cx="16" cy="16" r="15.35" fill="white" stroke="#1476F2" stroke-width="1.3"/>
<path d="M12.8 19.856V22.372C12.8 22.844 12.52 23.276 12.088 23.468L10 24.4" stroke="#1476F2" stroke-width="1.3" stroke-miterlimit="10" stroke-linecap="round" stroke-linejoin="round"/>
<path d="M19.1999 19.856V22.372C19.1999 22.844 19.4799 23.276 19.9119 23.468L21.9999 24.4" stroke="#1476F2" stroke-width="1.3" stroke-miterlimit="10" stroke-linecap="round" stroke-linejoin="round"/>
<path d="M20.3998 14V17.6C20.3998 19.2 17.9998 21.2 16.7998 21.2H15.9998H15.1998C13.9998 21.2 11.5998 19.2 11.5998 17.6V14" stroke="#1476F2" stroke-width="1.3" stroke-miterlimit="10" stroke-linejoin="round"/>
<path d="M14.8 8.4V6H17.2V8.4" stroke="#1476F2" stroke-width="1.3" stroke-miterlimit="10" stroke-linejoin="round"/>
<path d="M17.2 6.80005H17.6C19.2 6.80005 21.2 8.78405 21.2 10.8V12L22 12.4V14H16H10V12.4L10.8 12V10.8C10.8 8.78405 12.8 6.80005 14.4 6.80005H14.8" stroke="#1476F2" stroke-width="1.3" stroke-miterlimit="10" stroke-linejoin="round"/>
<path d="M10.8 12H11.6" stroke="#1476F2" stroke-width="1.3" stroke-miterlimit="10" stroke-linejoin="round"/>
<path d="M20.4002 12H21.2002" stroke="#1476F2" stroke-width="1.3" stroke-miterlimit="10" stroke-linejoin="round"/>
</g>
<defs>
<clipPath id="clip0_1765_2007">
<rect width="32" height="32" fill="white"/>
</clipPath>
</defs>
</svg>
