<svg width="30" height="30" viewBox="0 0 30 30" fill="none" xmlns="http://www.w3.org/2000/svg">
<path fill-rule="evenodd" clip-rule="evenodd" d="M19.995 3.78975C17.5776 2.71262 14.8768 2.44578 12.2953 3.02902C9.71387 3.61227 7.39011 5.01435 5.67062 7.02616C3.95112 9.03797 2.92801 11.5517 2.75388 14.1925C2.57974 16.8333 3.26392 19.4596 4.70436 21.6798C6.1448 23.9 8.26434 25.595 10.7468 26.5122C13.2294 27.4293 15.9418 27.5195 18.4798 26.7691C21.0177 26.0187 23.245 24.468 24.8296 22.3484C26.4142 20.2287 27.2712 17.6535 27.2727 15.007V13.7533C27.2727 13.0001 27.8832 12.3896 28.6364 12.3896C29.3895 12.3896 30 13.0001 30 13.7533V15.0078C29.9981 18.2424 28.9507 21.3906 27.014 23.9813C25.0772 26.572 22.3549 28.4673 19.253 29.3844C16.1511 30.3016 12.8359 30.1914 9.8017 29.0705C6.76752 27.9495 4.17698 25.8777 2.41644 23.1642C0.655899 20.4506 -0.180313 17.2407 0.0325152 14.0131C0.245344 10.7854 1.49581 7.71307 3.59742 5.25419C5.69903 2.79531 8.53918 1.08166 11.6943 0.368805C14.8494 -0.34405 18.1504 -0.0179089 21.105 1.29859C21.7929 1.6051 22.1021 2.41125 21.7956 3.09917C21.4891 3.78709 20.6829 4.09627 19.995 3.78975Z" fill="#1476F2"/>
<path fill-rule="evenodd" clip-rule="evenodd" d="M29.6002 3.13329C30.133 3.66556 30.1334 4.52897 29.6011 5.06177L15.9648 18.7118C15.7091 18.9677 15.3622 19.1116 15.0004 19.1116C14.6386 19.1117 14.2916 18.9681 14.0358 18.7122L9.9449 14.6213C9.41237 14.0888 9.41237 13.2254 9.9449 12.6929C10.4774 12.1603 11.3408 12.1603 11.8734 12.6929L14.9996 15.8191L27.6717 3.13426C28.204 2.60146 29.0674 2.60103 29.6002 3.13329Z" fill="#1476F2"/>
</svg>
