<svg xmlns="http://www.w3.org/2000/svg" width="398.60787" height="511.3041" viewBox="0 0 398.60787 511.3041" xmlns:xlink="http://www.w3.org/1999/xlink"><path d="m207.08662,511.3041H39.5824c-21.82571,0-39.5824-17.75646-39.5824-39.5824V39.5824C0,17.75646,17.7567,0,39.5824,0h167.50421c21.82594,0,39.5824,17.75646,39.5824,39.5824v432.13929c0,21.82594-17.75646,39.5824-39.5824,39.5824Z" fill="#2f2e41" stroke-width="0"/><path d="m207.25733,500.62158H39.4117c-16.37681,0-29.70032-13.32375-29.70032-29.70032V37.95499c0-16.37657,13.32351-29.70032,29.70032-29.70032h167.84563c16.37657,0,29.70032,13.32375,29.70032,29.70032v432.96627c0,16.37657-13.32375,29.70032-29.70032,29.70032Z" fill="#fff" stroke-width="0"/><path d="m149.55523,36.41767h-53.41258c-6.15805,0-11.16809-5.0098-11.16809-11.16809s5.01004-11.16809,11.16809-11.16809h53.41258c6.15829,0,11.16809,5.0098,11.16809,11.16809s-5.0098,11.16809-11.16809,11.16809Z" fill="#2f2e41" stroke-width="0"/><polygon points="282.1238 202.30374 265.1838 207.87373 265.1838 183.48373 280.55379 183.48373 282.1238 202.30374" fill="#efa4a7" stroke-width="0"/><circle cx="267.2838" cy="173.35374" r="16.88" fill="#efa4a7" stroke-width="0"/><path d="m271.91381,171.68374c-2.82999-.09-4.67999-2.94-5.78-5.55s-2.23001-5.60001-4.85001-6.67999c-2.14001-.88-5.92001,5.07001-7.62,3.48-1.76001-1.64999-.04001-10.13,1.82999-11.66s4.42999-1.82001,6.84-1.92999c5.88-.27,11.79999.2,17.57001,1.41,3.57001.74001,7.23999,1.86,9.81,4.44,3.26001,3.27,4.09,8.21001,4.32999,12.82001.23999,4.72-.03,9.66-2.32999,13.78999-2.29999,4.13-7.10001,7.17999-11.70001,6.12-.45999-2.5,0-5.07001.19-7.61.17999-2.53999,0-5.28-1.56-7.31s-4.85999-2.82001-6.67001-1.03" fill="#36344e" stroke-width="0"/><path d="m292.6838,177.53373c1.69-1.24001,3.70999-2.27,5.79001-2.02,2.25.27,4.14001,2.12,4.72,4.31s-.07001,4.60001-1.45999,6.39c-1.39001,1.78999-3.45001,2.97-5.64001,3.56-1.26001.34-2.64999.48-3.85001-.03-1.78-.75999-2.73001-3.03-2.04001-4.84" fill="#36344e" stroke-width="0"/><rect x="260.66381" y="473.66372" width="15.87" height="22.51001" fill="#efa4a7" stroke-width="0"/><path d="m245.20379,509.80374c-1.67001,0-3.14999-.04001-4.26999-.14001-4.22-.39001-8.23999-3.5-10.26001-5.32001-.91-.82001-1.20001-2.12-.73001-3.23999h0c.34-.81,1.01999-1.41,1.85999-1.64999l11.14001-3.17999,18.04001-12.17001.20001.35999c.07999.13,1.85001,3.32001,2.44,5.48001.23001.82001.17001,1.5-.17999,2.03-.23999.37-.57001.57999-.84.70001.32999.34,1.35001,1.03,4.5,1.54001,4.60001.73001,5.57001-4.04001,5.60999-4.23999l.03-.16.14001-.09c2.19-1.41,3.54001-2.04999,4-1.91.29001.09.78.23001,2.07999,13.22.13.41,1.04999,3.39999.42001,6.25-.67999,3.10999-14.26001,2.04001-16.97,1.79001-.07999,0-10.25.73001-17.20999.73001h0l-.00003-.00003Z" fill="#36344e" stroke-width="0"/><rect x="313.00268" y="458.46402" width="15.87" height="22.51001" transform="translate(-199.94667 240.99113) rotate(-31.95)" fill="#efa4a7" stroke-width="0"/><path d="m303.83379,506.71374c-1.85999,0-3.57001-.22-4.79001-.44-1.20001-.20999-2.14001-1.16-2.32999-2.37h0c-.14001-.85999.12-1.73001.70001-2.38l7.76999-8.59,8.85999-19.87.35999.20001c.14001.07001,3.32999,1.84,4.97,3.35999.63.57999.94,1.19.92999,1.82001,0,.44-.17001.79001-.34,1.04001.45999.12,1.69.16,4.63-1.07999,4.29001-1.81,2.59-6.37,2.51001-6.56l-.06-.14999.07001-.14999c1.10999-2.35999,1.91-3.60999,2.38-3.73999.29001-.07999.78-.20999,8.76001,10.10999.32999.26999,2.69,2.32999,3.67001,5.07999,1.07001,3-11.01999,9.26999-13.45001,10.5-.07001.06-12.73001,9.26001-17.92001,11.87-2.06,1.04001-4.5,1.35999-6.72,1.35999h0v-.01001Z" fill="#36344e" stroke-width="0"/><path d="m288.2138,285.39374h-44.42999l-4.03,41.33002,17.64001,152.71002h22.67999l-9.07001-88.20001,36.79001,79.63,20.16-14.10999-28.73001-74.34s10.26001-64.76001,2.20001-80.88998c-8.06-16.13-13.20999-16.13-13.20999-16.13h0l-.00003-.00006Z" fill="#36344e" stroke-width="0"/><polygon points="310.3138 287.91372 239.75381 287.91372 260.92379 196.68374 291.66381 196.68374 310.3138 287.91372" fill="#6c63ff" stroke-width="0"/><path id="uuid-7d80cb4f-e76e-4e7d-b177-29d12b8ef748-263" d="m222.23379,194.89374c-1.13-5.55.94-10.62,4.60001-11.32001,3.67001-.7,7.54999,3.23,8.67999,8.78.48001,2.21001.41,4.5-.22,6.69l4.45999,23.57001-11.53,1.82001-3.17001-23.42999c-1.42999-1.78999-2.39999-3.88-2.82001-6.11h0l.00003-.00002Z" fill="#efa4a7" stroke-width="0"/><path d="m290.91381,196.68374h-27.11002l-18.28,36.55-6.89001-27.39-15.14999,1.61s3.57999,53.52,19.25,51.71001,52.20001-50.03,48.17999-62.48h0l.00003-.00002Z" fill="#6c63ff" stroke-width="0"/><path id="uuid-1077a029-b210-476f-adbd-02dd9acf09c4-264" d="m321.19381,335.70373c1.13,5.54999-.94,10.62-4.60001,11.32001-3.67001.70001-7.54999-3.23001-8.67999-8.78-.48001-2.20999-.41-4.5.22-6.69l-4.45999-23.57001,11.53-1.82001,3.17001,23.42999c1.42999,1.79001,2.39999,3.88,2.82001,6.10999h0l-.00003.00003Z" fill="#efa4a7" stroke-width="0"/><path d="m275.4638,196.68374s15.41-.64999,16.20999,0c4.20001,3.44,28.87,127.34,28.87,127.34h-15.62l-29.45001-127.34h-.00998Z" fill="#6c63ff" stroke-width="0"/><path d="m148.93789,509.82944c0,.65997.53,1.19,1.19,1.19h247.28998c.65997,0,1.19-.53003,1.19-1.19s-.53003-1.19-1.19-1.19h-247.28998c-.66,0-1.19.53003-1.19,1.19Z" fill="#484565" stroke-width="0"/><rect x="20.25031" y="157.89514" width="207" height="59" fill="#d5d5d5" stroke-width="0"/><line x1="38.75031" y1="170.39514" x2="70.10738" y2="170.39514" fill="none" stroke="#000" stroke-miterlimit="10" stroke-width="2"/><line x1="38.75031" y1="187.39514" x2="207.75031" y2="187.39514" fill="none" stroke="#000" stroke-miterlimit="10" stroke-width="2"/><line x1="38.75031" y1="201.25004" x2="112.38086" y2="201.25004" fill="none" stroke="#000" stroke-miterlimit="10" stroke-width="2"/><line x1="38.75031" y1="287.39514" x2="148.25031" y2="287.39514" fill="none" stroke="#000" stroke-miterlimit="10" stroke-width="2"/><line x1="38.75031" y1="304.39514" x2="131.25031" y2="304.39514" fill="none" stroke="#000" stroke-miterlimit="10" stroke-width="2"/><line x1="38.75031" y1="318.25004" x2="112.38086" y2="318.25004" fill="none" stroke="#000" stroke-miterlimit="10" stroke-width="2"/><line x1="38.75031" y1="230.09835" x2="139.53221" y2="230.09835" fill="none" stroke="#000" stroke-miterlimit="10" stroke-width="2"/><line x1="38.75031" y1="244.5225" x2="207.75031" y2="244.5225" fill="none" stroke="#000" stroke-miterlimit="10" stroke-width="2"/><line x1="38.75031" y1="260.64361" x2="112.38086" y2="260.64361" fill="none" stroke="#000" stroke-miterlimit="10" stroke-width="2"/></svg>